# xmcd
#
# Track frame offsets:
#	182
#	13312
#	25972
#	36737
#	52200
#	66487
#	78960
#	92417
#	103032
#	114730
#	128980
#	139620
#
# Disc length: 1904 seconds
# Revision: 1
# Processed by: cddbd v1.5.2PL0 Copyright (c) Steve Scherf et al.
# Submitted via: dBpowerAMP V12.0
#
DISCID=af076e0c
DTITLE=Country Sisters - Heart Of The Matter
DYEAR=1995
DGENRE=Country
TTITLE0=On The Bayou
TTITLE1=Let Me Be There
TTITLE2=Diggi Liggi Lo
TTITLE3=I Fell In Love
TTITLE4=Why Not Me
TTITLE5=If It Ain't Love
TTITLE6=Down At The Twist And Shout
TTITLE7=Guitar Fiddlin' Joe
TTITLE8=Old Fashioned Love
TTITLE9=Ghost Dance
TTITLE10=Louisiana Saturday Night
TTITLE11=Bonus Track
EXTD=
EXTT0=
EXTT1=
EXTT2=
EXTT3=
EXTT4=
EXTT5=
EXTT6=
EXTT7=
EXTT8=
EXTT9=
EXTT10=
EXTT11=
PLAYORDER=
